<mxfile host="app.diagrams.net" modified="2020-10-11T08:39:01.677Z" agent="5.0 (X11)" etag="_5Fa6Scta6Wpg5Gvergc" version="13.7.9" type="github">
  <diagram id="C5RBs43oDa-KdzZeNtuy" name="Page-1">
    <mxGraphModel dx="1422" dy="747" grid="1" gridSize="10" guides="1" tooltips="1" connect="1" arrows="1" fold="1" page="1" pageScale="1" pageWidth="827" pageHeight="1169" math="0" shadow="0">
      <root>
        <mxCell id="WIyWlLk6GJQsqaUBKTNV-0" />
        <mxCell id="WIyWlLk6GJQsqaUBKTNV-1" parent="WIyWlLk6GJQsqaUBKTNV-0" />
        <mxCell id="WIyWlLk6GJQsqaUBKTNV-3" value="&lt;div&gt;Start&lt;/div&gt;" style="rounded=1;whiteSpace=wrap;html=1;fontSize=12;glass=0;strokeWidth=1;shadow=0;" parent="WIyWlLk6GJQsqaUBKTNV-1" vertex="1">
          <mxGeometry x="70" y="20" width="390" height="40" as="geometry" />
        </mxCell>
        <mxCell id="8naEH1xYPrXJwvyAaGvz-0" value="&lt;div&gt;Process the image into 2D array&lt;/div&gt;&lt;div&gt;&lt;br&gt;&lt;/div&gt;" style="rounded=0;whiteSpace=wrap;html=1;" vertex="1" parent="WIyWlLk6GJQsqaUBKTNV-1">
          <mxGeometry x="70" y="130" width="410" height="60" as="geometry" />
        </mxCell>
        <mxCell id="8naEH1xYPrXJwvyAaGvz-3" value="&lt;div&gt;Iterating through the huffman tree to check if the array index value already encoded and exist in tree&lt;/div&gt;&lt;div&gt;&lt;br&gt;&lt;/div&gt;" style="rounded=0;whiteSpace=wrap;html=1;" vertex="1" parent="WIyWlLk6GJQsqaUBKTNV-1">
          <mxGeometry x="70" y="230" width="410" height="100" as="geometry" />
        </mxCell>
        <mxCell id="8naEH1xYPrXJwvyAaGvz-5" value="" style="endArrow=classic;html=1;exitX=0.5;exitY=1;exitDx=0;exitDy=0;" edge="1" parent="WIyWlLk6GJQsqaUBKTNV-1" source="8naEH1xYPrXJwvyAaGvz-0" target="8naEH1xYPrXJwvyAaGvz-3">
          <mxGeometry width="50" height="50" relative="1" as="geometry">
            <mxPoint x="530" y="240" as="sourcePoint" />
            <mxPoint x="133" y="231" as="targetPoint" />
          </mxGeometry>
        </mxCell>
        <mxCell id="8naEH1xYPrXJwvyAaGvz-7" value="&lt;div&gt;the current index value already encoded and exist in tree&lt;/div&gt;" style="rhombus;whiteSpace=wrap;html=1;" vertex="1" parent="WIyWlLk6GJQsqaUBKTNV-1">
          <mxGeometry x="130" y="370" width="320" height="140" as="geometry" />
        </mxCell>
        <mxCell id="8naEH1xYPrXJwvyAaGvz-8" value="Appending the code associated with the current index value to output buffer" style="rounded=0;whiteSpace=wrap;html=1;" vertex="1" parent="WIyWlLk6GJQsqaUBKTNV-1">
          <mxGeometry x="70" y="575" width="410" height="60" as="geometry" />
        </mxCell>
        <mxCell id="8naEH1xYPrXJwvyAaGvz-10" value="&lt;div&gt;No&lt;/div&gt;" style="text;html=1;strokeColor=none;fillColor=none;align=center;verticalAlign=middle;whiteSpace=wrap;rounded=0;" vertex="1" parent="WIyWlLk6GJQsqaUBKTNV-1">
          <mxGeometry x="230" y="520" width="40" height="20" as="geometry" />
        </mxCell>
        <mxCell id="8naEH1xYPrXJwvyAaGvz-11" style="edgeStyle=orthogonalEdgeStyle;rounded=0;orthogonalLoop=1;jettySize=auto;html=1;exitX=0.5;exitY=1;exitDx=0;exitDy=0;" edge="1" parent="WIyWlLk6GJQsqaUBKTNV-1" source="8naEH1xYPrXJwvyAaGvz-10" target="8naEH1xYPrXJwvyAaGvz-10">
          <mxGeometry relative="1" as="geometry" />
        </mxCell>
        <mxCell id="8naEH1xYPrXJwvyAaGvz-13" value="&lt;div&gt;Increasing the frequency counter associated with current index value&lt;/div&gt;" style="rounded=0;whiteSpace=wrap;html=1;" vertex="1" parent="WIyWlLk6GJQsqaUBKTNV-1">
          <mxGeometry x="70" y="720" width="410" height="60" as="geometry" />
        </mxCell>
        <mxCell id="8naEH1xYPrXJwvyAaGvz-14" value="Sorting the index value frequency table by the index value occurence&amp;nbsp; using quicksort algorithm" style="rounded=0;whiteSpace=wrap;html=1;" vertex="1" parent="WIyWlLk6GJQsqaUBKTNV-1">
          <mxGeometry x="70" y="840" width="410" height="80" as="geometry" />
        </mxCell>
        <mxCell id="8naEH1xYPrXJwvyAaGvz-15" value="Is this the first unique index value in input buffer" style="rhombus;whiteSpace=wrap;html=1;" vertex="1" parent="WIyWlLk6GJQsqaUBKTNV-1">
          <mxGeometry x="45" y="970" width="435" height="140" as="geometry" />
        </mxCell>
        <mxCell id="8naEH1xYPrXJwvyAaGvz-16" value="" style="endArrow=classic;html=1;exitX=0.929;exitY=0.557;exitDx=0;exitDy=0;exitPerimeter=0;" edge="1" parent="WIyWlLk6GJQsqaUBKTNV-1" source="8naEH1xYPrXJwvyAaGvz-15">
          <mxGeometry width="50" height="50" relative="1" as="geometry">
            <mxPoint x="290" y="1040" as="sourcePoint" />
            <mxPoint x="620" y="1140" as="targetPoint" />
            <Array as="points">
              <mxPoint x="620" y="1050" />
            </Array>
          </mxGeometry>
        </mxCell>
        <mxCell id="8naEH1xYPrXJwvyAaGvz-17" value="" style="endArrow=classic;html=1;exitX=0.5;exitY=1;exitDx=0;exitDy=0;" edge="1" parent="WIyWlLk6GJQsqaUBKTNV-1" source="8naEH1xYPrXJwvyAaGvz-15">
          <mxGeometry width="50" height="50" relative="1" as="geometry">
            <mxPoint x="290" y="1040" as="sourcePoint" />
            <mxPoint x="263" y="1180" as="targetPoint" />
          </mxGeometry>
        </mxCell>
        <mxCell id="8naEH1xYPrXJwvyAaGvz-18" value="Yes" style="text;html=1;strokeColor=none;fillColor=none;align=center;verticalAlign=middle;whiteSpace=wrap;rounded=0;" vertex="1" parent="WIyWlLk6GJQsqaUBKTNV-1">
          <mxGeometry x="220" y="1140" width="40" height="20" as="geometry" />
        </mxCell>
        <mxCell id="8naEH1xYPrXJwvyAaGvz-19" value="No" style="text;html=1;strokeColor=none;fillColor=none;align=center;verticalAlign=middle;whiteSpace=wrap;rounded=0;" vertex="1" parent="WIyWlLk6GJQsqaUBKTNV-1">
          <mxGeometry x="580" y="1080" width="40" height="20" as="geometry" />
        </mxCell>
      </root>
    </mxGraphModel>
  </diagram>
</mxfile>
